PathFileType	4	(X/Y/Z)	C:/Users/beibeiliu/ov580/test_trc/capture2\sequence.2_training_dense_left.trc
DataRate	CameraRate	NumFrames	NumMarkers	Units	OrigDataRate	OrigDataStartFrame	OrigNumFrames
120	120	7	19	mm	120	235	313
Frame#	Time	ThumbCMC			ThumbMCP			ThumbIP			ThumbTip			IndexMCP			IndexPIP			IndexTip			MiddleMCP			MiddlePIP			MiddleTip			RingMCP			RingPIP			RingTip			PinkyMCP			PinkyPIP			PinkyTip			BackHand1			BackHand2			BackHand3	
		X0	Y0	Z0	X1	Y1	Z1	X2	Y2	Z2	X3	Y3	Z3	X4	Y4	Z4	X5	Y5	Z5	X6	Y6	Z6	X7	Y7	Z7	X8	Y8	Z8	X9	Y9	Z9	X10	Y10	Z10	X11	Y11	Z11	X12	Y12	Z12	X13	Y13	Z13	X14	Y14	Z14	X15	Y15	Z15	X16	Y16	Z16	X17	Y17	Z17	X18	Y18	Z18	
234	1.95	-93.8756	-12.5887	-10.3443	-89.2815	-42.8971	-15.9942	-83.2346	-64.9042	-35.1839	-96.7223	-76.0747	-54.7615	-88.7234	-30.5499	-80.5758	-88.6289	-62.023	-80.3785	-94.5016	-67.7553	-49.29	-108.22	-38.5691	-86.2058	-107.801	-69.5772	-76.2368	-112.05	-68.7489	-42.2395	-128.48	-44.7225	-83.0015	-126.452	-69.9146	-70.8331	-124.095	-70.4141	-35.3824	-145.941	-39.3498	-73.2395	-142.208	-67.2943	-62.3996	-131.663	-62.8913	-31.5086	-139.7	6.50922	-52.3827	-143.338	20.6171	-24.9638	-112.267	15.886	-33.6457	
235	1.95833	-96.4947	-14.7311	-1.93048	-89.4774	-48.3757	-10.5306	-85.9184	-71.721	-24.6967	-101.817	-82.6818	-47.9108	-93.3521	-39.5236	-74.7738	-91.4878	-69.0768	-75.0795	-98.0999	-72.4421	-38.7686	-112.806	-48.3637	-80.7665	-109.77	-77.4465	-67.7063	-116.525	-72.669	-34.0732	-132.616	-51.9323	-75.9795	-129.792	-77.5634	-60.0604	-128.829	-74.6383	-28.4491	-151.705	-47.8661	-68.6537	-144.492	-72.0055	-51.7282	-136.095	-64.1865	-25.3064	-141.739	0.549284	-47.7782	-147.948	16.9784	-21.4193	-108.381	10.0425	-32.3224	
236	1.96667	-95.1627	-18.9524	2.55786	-90.2137	-52.5992	-2.35	-88.1568	-77.0824	-18.3061	-102.579	-90.3133	-39.102	-90.8336	-49.2265	-68.8561	-94.7612	-76.9436	-65.7001	-103.565	-76.5679	-30.1504	-112.283	-50.9815	-71.884	-115.028	-83.7281	-59.8974	-118.113	-77.066	-27.5532	-132.337	-55.0394	-68.542	-134.191	-83.7291	-49.0977	-131.314	-73.2606	-18.4979	-154.276	-52.8736	-62.1071	-145.158	-76.5866	-41.6891	-135.044	-60.658	-16.9454	-139.064	-2.62679	-44.3173	-147.338	14.3085	-22.6826	-112.029	5.16513	-28.8726	
237	1.975	-99.9581	-19.4689	-1.52	-91.4911	-53.3199	-1.84018	-92.3152	-75.2279	-12.5311	-102.765	-94.0086	-30.0469	-92.3406	-54.5695	-64.9384	-91.6882	-81.2907	-59.6858	-103.2	-81.4013	-27.1541	-110.854	-59.5611	-68.3599	-111.178	-88.2874	-53.8128	-118.82	-78.3121	-18.7037	-133.875	-62.1526	-63.3577	-132.025	-87.1663	-44.6762	-127.599	-75.083	-13.4806	-148.632	-60.4762	-54.6286	-147.214	-79.5572	-35.1499	-137.284	-56.7324	-9.57354	-144.229	-9.05133	-44.367	-146.669	10.6984	-24.2503	-116.153	4.20672	-29.429	
238	1.98333	-97.9243	-17.027	3.13012	-91.3696	-49.0122	5.84275	-85.7366	-77.1135	-5.12474	-99.007	-93.7726	-22.7184	-90.4578	-54.8182	-58.8819	-89.6062	-85.9289	-49.1885	-96.0939	-81.6623	-18.2813	-111.162	-64.8706	-63.1409	-113.139	-92.423	-45.6445	-114.312	-79.8617	-11.0496	-130.092	-70.1592	-56.6365	-128.39	-90.2948	-36.488	-126.707	-74.3889	-6.06532	-150.533	-68.506	-48.2035	-141.882	-81.0066	-23.4217	-137.452	-57.6517	-3.3765	-143.34	-12.6798	-41.8891	-152.341	6.37331	-25.8279	-117.013	2.44898	-25.2535	
239	1.99167	-99.7123	-13.7807	5.59765	-92.1729	-46.4255	7.44874	-84.331	-72.8964	-0.439307	-93.7296	-95.6654	-16.6388	-92.9867	-57.4531	-54.662	-85.2025	-85.3724	-44.5977	-95.7258	-79.4288	-11.3643	-110.134	-67.8989	-57.7932	-110.099	-94.1953	-39.1741	-113.214	-79.9182	-4.49592	-130.777	-72.959	-50.6582	-124.661	-91.9378	-25.002	-126.278	-74.9384	0.333553	-147.372	-67.9839	-42.4252	-138.794	-82.0574	-13.5279	-134.562	-59.6138	2.56941	-146.493	-19.9046	-43.0368	-156.322	5.31608	-22.9432	-119.916	0.720793	-28.2205	
240	2	-101.39	-14.2754	5.47116	-89.8455	-41.6553	12.8338	-80.3571	-69.0901	4.35681	-92.0758	-89.621	-10.998	-92.203	-58.9274	-50.2401	-86.8426	-86.4931	-35.3079	-92.3617	-77.4764	-7.58428	-109.616	-73.9563	-52.8503	-105.51	-94.8973	-34.8942	-109.105	-77.9482	1.65343	-124.453	-76.1936	-44.6372	-121.22	-92.3982	-19.2665	-123.343	-70.3111	7.90459	-146.224	-78.0635	-35.3215	-137.874	-82.606	-7.13579	-132.697	-55.2526	7.2949	-148.887	-21.818	-41.5738	-155.331	-0.438322	-21.9004	-121.001	-0.343756	-27.8061	
